<?xml version="1.0" standalone="no"?>
<!DOCTYPE svg PUBLIC "-//W3C//DTD SVG 20010904//EN"
 "http://www.w3.org/TR/2001/REC-SVG-20010904/DTD/svg10.dtd">
<svg version="1.0" xmlns="http://www.w3.org/2000/svg"
 width="144.000000pt" height="153.000000pt" viewBox="0 0 144.000000 153.000000"
 preserveAspectRatio="xMidYMid meet">

<g transform="translate(0.000000,153.000000) scale(0.100000,-0.100000)"
fill="#000000" stroke="none">
<path d="M16 1494 c-8 -20 -8 -1438 0 -1458 5 -14 38 -16 259 -16 247 0 254 1
260 20 11 33 -12 50 -66 50 -52 0 -51 -1 -61 90 -3 21 -8 25 -33 25 -29 0 -30
-1 -33 -53 l-3 -53 -117 3 -117 3 -3 463 -2 462 190 0 c161 0 192 2 196 15 4
8 1 22 -6 30 -10 12 -46 15 -197 15 l-184 0 3 48 c2 33 7 47 18 48 8 1 23 2
33 3 15 1 18 9 15 49 -3 45 -4 47 -35 50 l-33 3 0 65 0 64 620 0 620 0 0 -65
0 -65 -36 0 -35 0 3 -52 c3 -51 4 -52 33 -53 29 0 30 -2 33 -47 l3 -48 -183 0
c-101 0 -189 -4 -196 -9 -8 -5 -12 -17 -10 -27 3 -18 16 -19 196 -22 l192 -2
-2 -463 -3 -462 -117 -3 -117 -3 -3 53 c-3 52 -4 53 -35 56 l-32 3 -7 -60 -6
-60 -51 -3 c-53 -3 -75 -21 -64 -52 6 -15 32 -16 259 -14 l253 3 0 740 0 740
-696 2 c-628 3 -697 1 -703 -13z"/>
</g>
</svg>
